<mxfile host="app.diagrams.net" modified="2023-08-27T15:58:14.495Z" agent="Mozilla/5.0 (X11; Linux x86_64) AppleWebKit/537.36 (KHTML, like Gecko) Chrome/116.0.0.0 Safari/537.36" etag="d8lkBZ3uZqx9ICqQ0ylu" version="21.6.9" type="device">
  <diagram name="Page-1" id="BFvRnD2E7gtScjDi93Sd">
    <mxGraphModel dx="683" dy="356" grid="0" gridSize="10" guides="1" tooltips="1" connect="1" arrows="1" fold="1" page="1" pageScale="1" pageWidth="850" pageHeight="1100" math="1" shadow="0">
      <root>
        <mxCell id="0" />
        <mxCell id="1" parent="0" />
        <mxCell id="0n58KNMFv20y-GEzo8qa-3" value="" style="rounded=0;whiteSpace=wrap;html=1;fillColor=#fff2cc;strokeColor=#d6b656;" parent="1" vertex="1">
          <mxGeometry x="320" y="440" width="140" height="130" as="geometry" />
        </mxCell>
        <mxCell id="0n58KNMFv20y-GEzo8qa-6" value="" style="rounded=0;whiteSpace=wrap;html=1;fillColor=#fff2cc;strokeColor=#d6b656;" parent="1" vertex="1">
          <mxGeometry x="320" y="310" width="140" height="130" as="geometry" />
        </mxCell>
        <mxCell id="0n58KNMFv20y-GEzo8qa-46" value="" style="ellipse;whiteSpace=wrap;html=1;fillColor=#e1d5e7;strokeColor=#9673a6;rotation=0;" parent="1" vertex="1">
          <mxGeometry x="445" y="425" width="30" height="30" as="geometry" />
        </mxCell>
        <mxCell id="0n58KNMFv20y-GEzo8qa-2" value="" style="rounded=0;whiteSpace=wrap;html=1;fillColor=#fff2cc;strokeColor=#d6b656;" parent="1" vertex="1">
          <mxGeometry x="180" y="440" width="140" height="130" as="geometry" />
        </mxCell>
        <mxCell id="0n58KNMFv20y-GEzo8qa-35" value="" style="ellipse;whiteSpace=wrap;html=1;fillColor=#e1d5e7;strokeColor=#9673a6;rotation=0;" parent="1" vertex="1">
          <mxGeometry x="305" y="555" width="30" height="30" as="geometry" />
        </mxCell>
        <mxCell id="0n58KNMFv20y-GEzo8qa-4" value="" style="rounded=0;whiteSpace=wrap;html=1;fillColor=#fff2cc;strokeColor=#d6b656;" parent="1" vertex="1">
          <mxGeometry x="180" y="310" width="140" height="130" as="geometry" />
        </mxCell>
        <mxCell id="0n58KNMFv20y-GEzo8qa-14" value="" style="ellipse;whiteSpace=wrap;html=1;fillColor=#dae8fc;strokeColor=#6c8ebf;" parent="1" vertex="1">
          <mxGeometry x="170" y="560" width="20" height="20" as="geometry" />
        </mxCell>
        <mxCell id="0n58KNMFv20y-GEzo8qa-15" value="" style="ellipse;whiteSpace=wrap;html=1;fillColor=#e1d5e7;strokeColor=#9673a6;rotation=0;" parent="1" vertex="1">
          <mxGeometry x="169.73" y="419.75" width="30" height="30" as="geometry" />
        </mxCell>
        <mxCell id="0n58KNMFv20y-GEzo8qa-17" value="" style="ellipse;whiteSpace=wrap;html=1;fillColor=#dae8fc;strokeColor=#6c8ebf;" parent="1" vertex="1">
          <mxGeometry x="450" y="560" width="20" height="20" as="geometry" />
        </mxCell>
        <mxCell id="0n58KNMFv20y-GEzo8qa-19" value="" style="ellipse;whiteSpace=wrap;html=1;fillColor=#dae8fc;strokeColor=#6c8ebf;" parent="1" vertex="1">
          <mxGeometry x="450" y="300" width="20" height="20" as="geometry" />
        </mxCell>
        <mxCell id="0n58KNMFv20y-GEzo8qa-20" value="" style="ellipse;whiteSpace=wrap;html=1;fillColor=#dae8fc;strokeColor=#6c8ebf;" parent="1" vertex="1">
          <mxGeometry x="170" y="300" width="20" height="20" as="geometry" />
        </mxCell>
        <mxCell id="0n58KNMFv20y-GEzo8qa-31" value="&lt;font style=&quot;font-size: 6px;&quot;&gt;$$A_1/B_2$$&lt;/font&gt;" style="text;html=1;strokeColor=none;fillColor=none;align=center;verticalAlign=middle;whiteSpace=wrap;rounded=0;fontSize=8;" parent="1" vertex="1">
          <mxGeometry x="290" y="555" width="60" height="30" as="geometry" />
        </mxCell>
        <mxCell id="0n58KNMFv20y-GEzo8qa-32" value="&lt;div style=&quot;font-size: 6px;&quot;&gt;$$B_1$$&lt;/div&gt;" style="text;html=1;strokeColor=none;fillColor=none;align=center;verticalAlign=middle;whiteSpace=wrap;rounded=0;fontSize=6;" parent="1" vertex="1">
          <mxGeometry x="150" y="555" width="60" height="30" as="geometry" />
        </mxCell>
        <mxCell id="0n58KNMFv20y-GEzo8qa-33" value="&lt;div style=&quot;font-size: 6px;&quot;&gt;&lt;font style=&quot;font-size: 6px;&quot;&gt;$$C_1/B_3$$&lt;/font&gt;&lt;/div&gt;" style="text;html=1;strokeColor=none;fillColor=none;align=center;verticalAlign=middle;whiteSpace=wrap;rounded=0;fontSize=8;" parent="1" vertex="1">
          <mxGeometry x="154.73000000000002" y="419.75" width="60" height="30" as="geometry" />
        </mxCell>
        <mxCell id="0n58KNMFv20y-GEzo8qa-37" value="" style="ellipse;whiteSpace=wrap;html=1;fillColor=#e1d5e7;strokeColor=#9673a6;rotation=0;" parent="1" vertex="1">
          <mxGeometry x="296.25" y="416.25" width="47.5" height="47.5" as="geometry" />
        </mxCell>
        <mxCell id="0n58KNMFv20y-GEzo8qa-38" value="" style="ellipse;whiteSpace=wrap;html=1;fillColor=#e1d5e7;strokeColor=#9673a6;rotation=0;" parent="1" vertex="1">
          <mxGeometry x="305" y="300" width="30" height="30" as="geometry" />
        </mxCell>
        <mxCell id="0n58KNMFv20y-GEzo8qa-39" value="&lt;div style=&quot;font-size: 5px;&quot;&gt;$$D_1/C_2/A_3/B_4$$&lt;/div&gt;" style="text;html=1;strokeColor=none;fillColor=none;align=center;verticalAlign=middle;whiteSpace=wrap;rounded=0;fontSize=5;" parent="1" vertex="1">
          <mxGeometry x="295" y="427.5" width="50" height="25" as="geometry" />
        </mxCell>
        <mxCell id="0n58KNMFv20y-GEzo8qa-41" value="&lt;div style=&quot;font-size: 6px;&quot;&gt;$$A_2$$&lt;/div&gt;" style="text;html=1;strokeColor=none;fillColor=none;align=center;verticalAlign=middle;whiteSpace=wrap;rounded=0;fontSize=6;" parent="1" vertex="1">
          <mxGeometry x="430" y="555" width="60" height="30" as="geometry" />
        </mxCell>
        <mxCell id="0n58KNMFv20y-GEzo8qa-42" value="&lt;div style=&quot;font-size: 6px;&quot;&gt;$$D_2/A_4$$&lt;/div&gt;" style="text;html=1;strokeColor=none;fillColor=none;align=center;verticalAlign=middle;whiteSpace=wrap;rounded=0;fontSize=6;" parent="1" vertex="1">
          <mxGeometry x="430" y="425" width="60" height="30" as="geometry" />
        </mxCell>
        <mxCell id="0n58KNMFv20y-GEzo8qa-43" value="&lt;div style=&quot;font-size: 6px;&quot;&gt;$$C_3$$&lt;/div&gt;" style="text;html=1;strokeColor=none;fillColor=none;align=center;verticalAlign=middle;whiteSpace=wrap;rounded=0;fontSize=6;" parent="1" vertex="1">
          <mxGeometry x="150" y="295" width="60" height="30" as="geometry" />
        </mxCell>
        <mxCell id="0n58KNMFv20y-GEzo8qa-44" value="&lt;div style=&quot;font-size: 6px;&quot;&gt;$$D_3/C_4$$&lt;/div&gt;" style="text;html=1;strokeColor=none;fillColor=none;align=center;verticalAlign=middle;whiteSpace=wrap;rounded=0;fontSize=6;" parent="1" vertex="1">
          <mxGeometry x="290" y="300" width="60" height="30" as="geometry" />
        </mxCell>
        <mxCell id="0n58KNMFv20y-GEzo8qa-45" value="&lt;div style=&quot;font-size: 6px;&quot;&gt;$$D_4$$&lt;/div&gt;" style="text;html=1;strokeColor=none;fillColor=none;align=center;verticalAlign=middle;whiteSpace=wrap;rounded=0;fontSize=6;" parent="1" vertex="1">
          <mxGeometry x="430" y="295" width="60" height="30" as="geometry" />
        </mxCell>
        <mxCell id="0n58KNMFv20y-GEzo8qa-47" value="$$panel_1$$" style="text;html=1;strokeColor=none;fillColor=none;align=center;verticalAlign=middle;whiteSpace=wrap;rounded=0;" parent="1" vertex="1">
          <mxGeometry x="220" y="490" width="60" height="30" as="geometry" />
        </mxCell>
        <mxCell id="0n58KNMFv20y-GEzo8qa-48" value="$$panel_2$$" style="text;html=1;strokeColor=none;fillColor=none;align=center;verticalAlign=middle;whiteSpace=wrap;rounded=0;" parent="1" vertex="1">
          <mxGeometry x="360" y="490" width="60" height="30" as="geometry" />
        </mxCell>
        <mxCell id="0n58KNMFv20y-GEzo8qa-49" value="$$panel_3$$" style="text;html=1;strokeColor=none;fillColor=none;align=center;verticalAlign=middle;whiteSpace=wrap;rounded=0;" parent="1" vertex="1">
          <mxGeometry x="220" y="360" width="60" height="30" as="geometry" />
        </mxCell>
        <mxCell id="0n58KNMFv20y-GEzo8qa-50" value="$$panel_4$$" style="text;html=1;strokeColor=none;fillColor=none;align=center;verticalAlign=middle;whiteSpace=wrap;rounded=0;" parent="1" vertex="1">
          <mxGeometry x="360" y="360" width="60" height="30" as="geometry" />
        </mxCell>
        <mxCell id="0n58KNMFv20y-GEzo8qa-51" value="$$A_i, B_i, C_i, D_i - panel \, points$$" style="text;html=1;strokeColor=none;fillColor=none;align=center;verticalAlign=middle;whiteSpace=wrap;rounded=0;" parent="1" vertex="1">
          <mxGeometry x="169.73" y="590" width="300" height="30" as="geometry" />
        </mxCell>
      </root>
    </mxGraphModel>
  </diagram>
</mxfile>
